<svg width="110" height="236" viewBox="0 0 110 236" fill="none" xmlns="http://www.w3.org/2000/svg">
<path d="M0.29996 234.167C0.116315 234.554 0.28086 235.016 0.667481 235.2C1.0541 235.384 1.51639 235.219 1.70004 234.832L1 234.5L0.29996 234.167ZM97 0.5L93.7668 8.84445L102.61 7.47224L97 0.5ZM71.8379 128.222L72.0411 128.97L71.8379 128.222ZM108.142 72.3033L108.908 72.1844L108.142 72.3033ZM27.2185 121.785L27.7773 121.248L27.2185 121.785ZM61.0538 131.151L61.257 131.899L61.0538 131.151ZM23.2548 76.8412L23.7365 77.4483L23.2548 76.8412ZM20.6844 114.985L21.2432 114.448L20.6844 114.985ZM60.5488 83.7061C60.7584 84.0792 61.2309 84.2119 61.6041 84.0023C61.9773 83.7927 62.1099 83.3202 61.9003 82.947L61.2246 83.3265L60.5488 83.7061ZM24.2452 76.0553L23.7635 75.4482L24.2452 76.0553ZM62.0016 106.075L62.7017 106.408L62.0016 106.075ZM61.9003 82.947C61.6907 82.5738 61.2182 82.4412 60.845 82.6508C60.4719 82.8604 60.3392 83.3329 60.5488 83.7061L61.2246 83.3265L61.9003 82.947ZM2.3631 233.437C2.54675 233.05 2.3822 232.588 1.99558 232.404C1.60896 232.22 1.14667 232.385 0.963021 232.771L1.66306 233.104L2.3631 233.437ZM2.28914 229.98C2.1055 230.366 2.27004 230.829 2.65666 231.012C3.04329 231.196 3.50558 231.031 3.68922 230.645L2.98918 230.312L2.28914 229.98ZM5.01535 227.853C5.19899 227.466 5.03445 227.004 4.64783 226.82C4.2612 226.637 3.79891 226.801 3.61527 227.188L4.31531 227.52L5.01535 227.853ZM4.94139 224.396C4.75774 224.783 4.92229 225.245 5.30891 225.429C5.69553 225.612 6.15782 225.448 6.34147 225.061L5.64143 224.728L4.94139 224.396ZM7.66759 222.269C7.85124 221.883 7.68669 221.42 7.30007 221.237C6.91345 221.053 6.45116 221.217 6.26751 221.604L6.96755 221.937L7.66759 222.269ZM7.59363 218.812C7.40999 219.199 7.57453 219.661 7.96115 219.845C8.34778 220.028 8.81007 219.864 8.99371 219.477L8.29367 219.145L7.59363 218.812ZM10.3198 216.685C10.5035 216.299 10.3389 215.837 9.95231 215.653C9.56569 215.469 9.1034 215.634 8.91976 216.02L9.6198 216.353L10.3198 216.685ZM10.2459 213.229C10.0622 213.615 10.2268 214.078 10.6134 214.261C11 214.445 11.4623 214.28 11.646 213.894L10.9459 213.561L10.2459 213.229ZM12.9721 211.102C13.1557 210.715 12.9912 210.253 12.6046 210.069C12.2179 209.886 11.7556 210.05 11.572 210.437L12.272 210.769L12.9721 211.102ZM12.8981 207.645C12.7145 208.032 12.879 208.494 13.2656 208.677C13.6523 208.861 14.1146 208.697 14.2982 208.31L13.5982 207.977L12.8981 207.645ZM15.6243 205.518C15.808 205.132 15.6434 204.669 15.2568 204.486C14.8702 204.302 14.4079 204.466 14.2242 204.853L14.9243 205.186L15.6243 205.518ZM15.5504 202.061C15.3667 202.448 15.5313 202.91 15.9179 203.094C16.3045 203.277 16.7668 203.113 16.9504 202.726L16.2504 202.394L15.5504 202.061ZM18.2766 199.934C18.4602 199.548 18.2957 199.086 17.909 198.902C17.5224 198.718 17.0601 198.883 16.8765 199.269L17.5765 199.602L18.2766 199.934ZM18.2026 196.478C18.019 196.864 18.1835 197.327 18.5701 197.51C18.9568 197.694 19.419 197.529 19.6027 197.143L18.9027 196.81L18.2026 196.478ZM20.9288 194.351C21.1125 193.964 20.9479 193.502 20.5613 193.318C20.1747 193.135 19.7124 193.299 19.5287 193.686L20.2288 194.018L20.9288 194.351ZM20.8549 190.894C20.6712 191.281 20.8358 191.743 21.2224 191.926C21.609 192.11 22.0713 191.946 22.2549 191.559L21.5549 191.226L20.8549 190.894ZM23.5811 188.767C23.7647 188.38 23.6002 187.918 23.2135 187.735C22.8269 187.551 22.3646 187.715 22.181 188.102L22.881 188.435L23.5811 188.767ZM23.5071 185.31C23.3235 185.697 23.488 186.159 23.8746 186.343C24.2612 186.526 24.7235 186.362 24.9072 185.975L24.2071 185.643L23.5071 185.31ZM26.2333 183.183C26.417 182.797 26.2524 182.335 25.8658 182.151C25.4792 181.967 25.0169 182.132 24.8332 182.518L25.5333 182.851L26.2333 183.183ZM26.1593 179.727C25.9757 180.113 26.1402 180.575 26.5269 180.759C26.9135 180.943 27.3758 180.778 27.5594 180.392L26.8594 180.059L26.1593 179.727ZM28.8856 177.6C29.0692 177.213 28.9047 176.751 28.518 176.567C28.1314 176.384 27.6691 176.548 27.4855 176.935L28.1855 177.267L28.8856 177.6ZM28.8116 174.143C28.6279 174.53 28.7925 174.992 29.1791 175.175C29.5657 175.359 30.028 175.195 30.2117 174.808L29.5116 174.475L28.8116 174.143ZM31.5378 172.016C31.7214 171.629 31.5569 171.167 31.1703 170.984C30.7837 170.8 30.3214 170.964 30.1377 171.351L30.8378 171.684L31.5378 172.016ZM31.4638 168.559C31.2802 168.946 31.4447 169.408 31.8314 169.592C32.218 169.775 32.6803 169.611 32.8639 169.224L32.1639 168.892L31.4638 168.559ZM34.19 166.432C34.3737 166.046 34.2091 165.584 33.8225 165.4C33.4359 165.216 32.9736 165.381 32.79 165.767L33.49 166.1L34.19 166.432ZM34.1161 162.976C33.9324 163.362 34.097 163.824 34.4836 164.008C34.8702 164.192 35.3325 164.027 35.5162 163.641L34.8161 163.308L34.1161 162.976ZM36.8423 160.849C37.0259 160.462 36.8614 160 36.4748 159.816C36.0881 159.633 35.6258 159.797 35.4422 160.184L36.1422 160.516L36.8423 160.849ZM36.7683 157.392C36.5847 157.779 36.7492 158.241 37.1358 158.424C37.5225 158.608 37.9848 158.444 38.1684 158.057L37.4684 157.724L36.7683 157.392ZM39.4945 155.265C39.6782 154.878 39.5136 154.416 39.127 154.233C38.7404 154.049 38.2781 154.213 38.0944 154.6L38.7945 154.933L39.4945 155.265ZM39.4206 151.808C39.2369 152.195 39.4015 152.657 39.7881 152.841C40.1747 153.024 40.637 152.86 40.8206 152.473L40.1206 152.141L39.4206 151.808ZM42.1468 149.681C42.3304 149.295 42.1659 148.833 41.7792 148.649C41.3926 148.465 40.9303 148.63 40.7467 149.016L41.4467 149.349L42.1468 149.681ZM42.0728 146.225C41.8892 146.611 42.0537 147.073 42.4403 147.257C42.8269 147.441 43.2892 147.276 43.4729 146.89L42.7728 146.557L42.0728 146.225ZM44.799 144.098C44.9827 143.711 44.8181 143.249 44.4315 143.065C44.0449 142.882 43.5826 143.046 43.3989 143.433L44.099 143.765L44.799 144.098ZM44.725 140.641C44.5414 141.028 44.7059 141.49 45.0926 141.673C45.4792 141.857 45.9415 141.693 46.1251 141.306L45.4251 140.973L44.725 140.641ZM47.4512 138.514C47.6349 138.127 47.4703 137.665 47.0837 137.482C46.6971 137.298 46.2348 137.462 46.0512 137.849L46.7512 138.182L47.4512 138.514ZM47.3773 135.057C47.1936 135.444 47.3582 135.906 47.7448 136.09C48.1314 136.273 48.5937 136.109 48.7774 135.722L48.0773 135.39L47.3773 135.057ZM50.1035 132.93C50.2871 132.544 50.1226 132.082 49.736 131.898C49.3493 131.714 48.8871 131.879 48.7034 132.265L49.4035 132.598L50.1035 132.93ZM50.0295 129.474C49.8459 129.86 50.0104 130.322 50.3971 130.506C50.7837 130.69 51.246 130.525 51.4296 130.139L50.7296 129.806L50.0295 129.474ZM52.7557 127.347C52.9394 126.96 52.7748 126.498 52.3882 126.314C52.0016 126.131 51.5393 126.295 51.3556 126.682L52.0557 127.014L52.7557 127.347ZM52.6818 123.89C52.4981 124.277 52.6627 124.739 53.0493 124.922C53.4359 125.106 53.8982 124.942 54.0819 124.555L53.3818 124.222L52.6818 123.89ZM55.408 121.763C55.5916 121.376 55.4271 120.914 55.0405 120.731C54.6538 120.547 54.1915 120.711 54.0079 121.098L54.7079 121.431L55.408 121.763ZM55.334 118.306C55.1504 118.693 55.3149 119.155 55.7015 119.339C56.0882 119.522 56.5504 119.358 56.7341 118.971L56.0341 118.639L55.334 118.306ZM58.0602 116.179C58.2439 115.793 58.0793 115.331 57.6927 115.147C57.3061 114.963 56.8438 115.128 56.6601 115.514L57.3602 115.847L58.0602 116.179ZM57.9863 112.723C57.8026 113.109 57.9672 113.571 58.3538 113.755C58.7404 113.939 59.2027 113.774 59.3863 113.388L58.6863 113.055L57.9863 112.723ZM60.7125 110.596C60.8961 110.209 60.7316 109.747 60.3449 109.563C59.9583 109.38 59.496 109.544 59.3124 109.931L60.0124 110.263L60.7125 110.596ZM60.6385 107.139C60.4549 107.525 60.6194 107.988 61.006 108.171C61.3927 108.355 61.8549 108.191 62.0386 107.804L61.3386 107.471L60.6385 107.139ZM63.3143 105.012C63.4746 104.615 63.2828 104.164 62.886 104.003C62.4891 103.843 62.0374 104.035 61.8771 104.432L62.5957 104.722L63.3143 105.012ZM62.7887 101.719C62.6768 102.132 62.9211 102.557 63.3342 102.669C63.7474 102.781 64.173 102.537 64.2848 102.124L63.5367 101.921L62.7887 101.719ZM64.904 99.1402C64.9658 98.7166 64.6725 98.3232 64.249 98.2614C63.8255 98.1996 63.432 98.4929 63.3702 98.9164L64.1371 99.0283L64.904 99.1402ZM63.6137 96.0646C63.6028 96.4925 63.9408 96.8482 64.3687 96.8591C64.7966 96.87 65.1523 96.532 65.1632 96.1041L64.3885 96.0844L63.6137 96.0646ZM65.0592 93.0589C65.0191 92.6327 64.6412 92.3198 64.215 92.3598C63.7889 92.3999 63.4759 92.7779 63.516 93.204L64.2876 93.1314L65.0592 93.0589ZM63.0785 90.3755C63.169 90.7938 63.5816 91.0595 63.9999 90.969C64.4182 90.8784 64.6839 90.4659 64.5934 90.0476L63.8359 90.2115L63.0785 90.3755ZM63.7721 87.1132C63.6323 86.7086 63.191 86.494 62.7865 86.6338C62.3819 86.7735 62.1673 87.2148 62.3071 87.6194L63.0396 87.3663L63.7721 87.1132ZM61.2125 84.9748C61.3995 85.3598 61.8632 85.5203 62.2482 85.3333C62.6332 85.1463 62.7938 84.6826 62.6068 84.2976L61.9096 84.6362L61.2125 84.9748ZM61.0868 81.5957C60.855 81.2358 60.3755 81.132 60.0156 81.3637C59.6558 81.5955 59.5519 82.075 59.7836 82.4349L60.4352 82.0153L61.0868 81.5957ZM58.0293 80.0463C58.3035 80.375 58.7922 80.4192 59.1209 80.145C59.4496 79.8708 59.4938 79.3821 59.2196 79.0534L58.6245 79.5498L58.0293 80.0463ZM57.0521 76.7614C56.7392 76.4694 56.2488 76.4863 55.9567 76.7992C55.6647 77.1121 55.6816 77.6025 55.9945 77.8946L56.5233 77.328L57.0521 76.7614ZM53.7082 76.0136C54.055 76.2644 54.5395 76.1865 54.7903 75.8396C55.041 75.4927 54.9631 75.0083 54.6163 74.7575L54.1622 75.3856L53.7082 76.0136ZM51.9501 73.0721C51.5748 72.8663 51.1037 73.0037 50.8979 73.379C50.6921 73.7542 50.8295 74.2253 51.2048 74.4311L51.5774 73.7516L51.9501 73.0721ZM48.5241 73.1698C48.9219 73.3278 49.3725 73.1335 49.5305 72.7357C49.6885 72.3379 49.4941 71.8873 49.0964 71.7293L48.8102 72.4496L48.5241 73.1698ZM46.1001 70.7473C45.686 70.6392 45.2626 70.8873 45.1545 71.3014C45.0464 71.7155 45.2944 72.1389 45.7086 72.2471L45.9044 71.4972L46.1001 70.7473ZM42.801 71.6753C43.2253 71.7321 43.6152 71.4341 43.6719 71.0099C43.7286 70.5856 43.4307 70.1957 43.0064 70.139L42.9037 70.9072L42.801 71.6753ZM39.8615 69.9135C39.4335 69.9091 39.083 70.2525 39.0786 70.6805C39.0743 71.1085 39.4177 71.459 39.8457 71.4634L39.8536 70.6884L39.8615 69.9135ZM36.887 71.6158C37.3123 71.5674 37.6178 71.1835 37.5694 70.7582C37.5211 70.3329 37.1371 70.0274 36.7118 70.0758L36.7994 70.8458L36.887 71.6158ZM33.606 70.6262C33.19 70.727 32.9344 71.1459 33.0352 71.5619C33.136 71.9779 33.5549 72.2334 33.9709 72.1327L33.7884 71.3795L33.606 70.6262ZM31.1425 73.0079C31.5427 72.8561 31.7441 72.4086 31.5923 72.0084C31.4404 71.6082 30.9929 71.4069 30.5928 71.5587L30.8677 72.2833L31.1425 73.0079ZM27.7188 72.8594C27.3406 73.0598 27.1965 73.5289 27.3969 73.9071C27.5973 74.2853 28.0663 74.4294 28.4446 74.229L28.0817 73.5442L27.7188 72.8594ZM25.9165 75.7756C26.2672 75.5303 26.3527 75.0471 26.1074 74.6963C25.862 74.3456 25.3788 74.2601 25.0281 74.5054L25.4723 75.1405L25.9165 75.7756ZM23.5159 75.6447C23.1806 75.9107 23.1245 76.3982 23.3905 76.7335C23.6566 77.0688 24.1441 77.1249 24.4794 76.8589L23.9976 76.2518L23.5159 75.6447ZM23.9841 77.2518C24.3194 76.9858 24.3756 76.4983 24.1095 76.163C23.8435 75.8277 23.356 75.7716 23.0207 76.0376L23.5024 76.6447L23.9841 77.2518ZM21.5623 77.2536C21.2431 77.5388 21.2155 78.0287 21.5006 78.3479C21.7857 78.6671 22.2757 78.6947 22.5949 78.4096L22.0786 77.8316L21.5623 77.2536ZM20.4925 80.5238C20.7758 80.2029 20.7452 79.7131 20.4243 79.4299C20.1034 79.1467 19.6137 79.1772 19.3304 79.4981L19.9115 80.0109L20.4925 80.5238ZM17.3816 81.9924C17.1388 82.3449 17.2277 82.8275 17.5802 83.0703C17.9326 83.3131 18.4152 83.2242 18.658 82.8717L18.0198 82.4321L17.3816 81.9924ZM17.1184 85.4219C17.3172 85.0429 17.1711 84.5744 16.7921 84.3756C16.4131 84.1768 15.9446 84.3228 15.7458 84.7019L16.4321 85.0619L17.1184 85.4219ZM14.4457 87.5877C14.2936 87.9877 14.4945 88.4354 14.8946 88.5876C15.2946 88.7398 15.7423 88.5388 15.8945 88.1388L15.1701 87.8632L14.4457 87.5877ZM15.0023 90.9827C15.1059 90.5675 14.8533 90.1468 14.438 90.0431C14.0227 89.9395 13.6021 90.1921 13.4984 90.6074L14.2503 90.7951L15.0023 90.9827ZM12.9151 93.7172C12.8612 94.1418 13.1617 94.5298 13.5863 94.5837C14.0109 94.6376 14.3988 94.3371 14.4527 93.9125L13.6839 93.8149L12.9151 93.7172ZM14.2523 96.8869C14.2558 96.4589 13.9117 96.109 13.4837 96.1055C13.0557 96.102 12.7059 96.4461 12.7023 96.8741L13.4773 96.8805L14.2523 96.8869ZM12.8632 100.034C12.9102 100.46 13.2932 100.766 13.7186 100.719C14.144 100.672 14.4508 100.289 14.4038 99.8639L13.6335 99.949L12.8632 100.034ZM14.9064 102.802C14.8092 102.385 14.3926 102.126 13.9757 102.223C13.5589 102.32 13.2997 102.737 13.3968 103.154L14.1516 102.978L14.9064 102.802ZM14.2979 106.188C14.4441 106.59 14.8887 106.798 15.291 106.651C15.6933 106.505 15.9009 106.061 15.7547 105.658L15.0263 105.923L14.2979 106.188ZM16.9383 108.392C16.745 108.01 16.2787 107.857 15.8968 108.051C15.5149 108.244 15.3621 108.71 15.5554 109.092L16.2469 108.742L16.9383 108.392ZM17.152 111.825C17.3896 112.181 17.8709 112.277 18.2269 112.04C18.5829 111.802 18.6788 111.321 18.4412 110.965L17.7966 111.395L17.152 111.825ZM20.2409 113.342C19.9628 113.017 19.4736 112.978 19.1482 113.256C18.8228 113.534 18.7845 114.024 19.0625 114.349L19.6517 113.845L20.2409 113.342ZM20.9424 116.372C21.2389 116.68 21.7295 116.69 22.0382 116.394C22.3468 116.097 22.3566 115.606 22.06 115.298L21.5012 115.835L20.9424 116.372ZM23.6935 116.998C23.397 116.689 22.9063 116.679 22.5977 116.976C22.2891 117.272 22.2793 117.763 22.5759 118.072L23.1347 117.535L23.6935 116.998ZM24.2094 119.772C24.506 120.08 24.9966 120.09 25.3052 119.793C25.6138 119.497 25.6236 119.006 25.327 118.698L24.7682 119.235L24.2094 119.772ZM26.9606 120.398C26.664 120.089 26.1734 120.079 25.8648 120.376C25.5561 120.672 25.5464 121.163 25.8429 121.472L26.4017 120.935L26.9606 120.398ZM27.7724 123.429C28.0824 123.724 28.5729 123.712 28.8681 123.402C29.1632 123.092 29.1512 122.602 28.8412 122.307L28.3068 122.868L27.7724 123.429ZM31.1037 124.276C30.7686 124.01 30.2811 124.065 30.0148 124.4C29.7484 124.735 29.8041 125.223 30.1391 125.489L30.6214 124.883L31.1037 124.276ZM32.6808 127.331C33.0383 127.566 33.5189 127.467 33.7543 127.11C33.9897 126.752 33.8907 126.272 33.5332 126.036L33.107 126.684L32.6808 127.331ZM36.1099 127.572C35.7328 127.37 35.2629 127.511 35.0604 127.888C34.8578 128.265 34.9993 128.735 35.3763 128.938L35.7431 128.255L36.1099 127.572ZM38.2043 130.298C38.5979 130.466 39.0533 130.284 39.2215 129.89C39.3896 129.496 39.2069 129.041 38.8133 128.873L38.5088 129.586L38.2043 130.298ZM41.622 129.927C41.215 129.795 40.7777 130.018 40.6452 130.425C40.5128 130.832 40.7353 131.269 41.1423 131.401L41.3822 130.664L41.622 129.927ZM44.1667 132.239C44.5839 132.334 44.9997 132.074 45.0954 131.657C45.1911 131.239 44.9305 130.824 44.5133 130.728L44.34 131.483L44.1667 132.239ZM47.4645 131.268C47.0405 131.21 46.6495 131.506 46.5913 131.93C46.5331 132.354 46.8297 132.745 47.2538 132.803L47.3591 132.036L47.4645 131.268ZM50.3787 133.091C50.8063 133.111 51.1692 132.781 51.1894 132.353C51.2096 131.926 50.8793 131.563 50.4518 131.543L50.4152 132.317L50.3787 133.091ZM53.4516 131.55C53.0239 131.568 52.6919 131.93 52.7099 132.357C52.728 132.785 53.0893 133.117 53.5169 133.099L53.4843 132.325L53.4516 131.55ZM56.6438 132.827C57.0681 132.77 57.3666 132.381 57.3104 131.957C57.2543 131.532 56.8648 131.234 56.4405 131.29L56.5421 132.058L56.6438 132.827ZM59.3937 130.764C58.9761 130.858 58.7135 131.273 58.8072 131.69C58.9009 132.108 59.3154 132.37 59.7331 132.277L59.5634 131.521L59.3937 130.764ZM62.605 131.533C63.018 131.421 63.2619 130.995 63.1498 130.582C63.0376 130.169 62.6118 129.925 62.1987 130.037L62.4018 130.785L62.605 131.533ZM64.8947 129.305C64.4817 129.417 64.2378 129.843 64.35 130.256C64.4621 130.669 64.8879 130.913 65.301 130.801L65.0979 130.053L64.8947 129.305ZM67.997 130.068C68.4101 129.956 68.654 129.531 68.5418 129.117C68.4296 128.704 68.0038 128.46 67.5908 128.573L67.7939 129.321L67.997 130.068ZM70.2868 127.84C69.8737 127.953 69.6298 128.378 69.742 128.791C69.8542 129.205 70.28 129.448 70.6931 129.336L70.4899 128.588L70.2868 127.84ZM73.5271 128.543C73.9366 128.418 74.1676 127.985 74.0431 127.576C73.9185 127.166 73.4856 126.935 73.0761 127.06L73.3016 127.801L73.5271 128.543ZM75.9109 126.103C75.5097 126.252 75.3052 126.698 75.4543 127.1C75.6033 127.501 76.0493 127.705 76.4506 127.556L76.1808 126.83L75.9109 126.103ZM79.3118 126.393C79.7032 126.22 79.8802 125.763 79.7071 125.371C79.534 124.98 79.0763 124.803 78.6848 124.976L78.9983 125.685L79.3118 126.393ZM81.3843 123.682C81.0042 123.879 80.8554 124.346 81.0521 124.727C81.2488 125.107 81.7165 125.255 82.0966 125.059L81.7405 124.37L81.3843 123.682ZM84.7936 123.557C85.161 123.338 85.2809 122.862 85.0613 122.494C84.8418 122.127 84.3659 122.007 83.9985 122.227L84.396 122.892L84.7936 123.557ZM86.5197 120.613C86.1664 120.855 86.0759 121.337 86.3175 121.69C86.5591 122.044 87.0414 122.134 87.3947 121.893L86.9572 121.253L86.5197 120.613ZM89.8893 120.072C90.2272 119.81 90.2881 119.323 90.0254 118.985C89.7626 118.647 89.2757 118.586 88.9378 118.849L89.4136 119.461L89.8893 120.072ZM91.2432 116.941C90.9219 117.224 90.8908 117.713 91.1736 118.034C91.4565 118.356 91.9462 118.387 92.2674 118.104L91.7553 117.522L91.2432 116.941ZM94.5218 115.994C94.8252 115.692 94.8265 115.201 94.5247 114.898C94.2228 114.595 93.7321 114.593 93.4287 114.895L93.9752 115.445L94.5218 115.994ZM95.4858 112.721C95.2012 113.04 95.2297 113.53 95.5495 113.815C95.8692 114.099 96.359 114.071 96.6436 113.751L96.0647 113.236L95.4858 112.721ZM98.6253 111.384C98.8899 111.047 98.8318 110.56 98.4954 110.296C98.1591 110.031 97.6718 110.089 97.4071 110.425L98.0162 110.905L98.6253 111.384ZM99.1862 108.018C98.9424 108.369 99.0299 108.852 99.3817 109.096C99.7334 109.34 100.216 109.252 100.46 108.901L99.8231 108.459L99.1862 108.018ZM102.141 106.311C102.363 105.945 102.247 105.469 101.881 105.247C101.515 105.024 101.038 105.141 100.816 105.507L101.479 105.909L102.141 106.311ZM102.291 102.902C102.092 103.281 102.237 103.749 102.616 103.949C102.994 104.149 103.463 104.003 103.663 103.625L102.977 103.263L102.291 102.902ZM105.019 100.851C105.195 100.461 105.021 100.002 104.631 99.8258C104.241 99.6496 103.782 99.8229 103.606 100.213L104.312 100.532L105.019 100.851ZM104.755 97.4489C104.603 97.8489 104.804 98.2966 105.204 98.4488C105.604 98.6011 106.052 98.4002 106.204 98.0002L105.479 97.7245L104.755 97.4489ZM107.214 95.0822C107.341 94.6737 107.114 94.239 106.705 94.1114C106.297 93.9838 105.862 94.2115 105.734 94.6201L106.474 94.8511L107.214 95.0822ZM106.539 91.7377C106.437 92.1533 106.69 92.5732 107.106 92.6757C107.522 92.7782 107.941 92.5244 108.044 92.1088L107.292 91.9232L106.539 91.7377ZM108.691 89.0894C108.768 88.6683 108.489 88.2646 108.068 88.1877C107.647 88.1108 107.244 88.3898 107.167 88.8109L107.929 88.9501L108.691 89.0894ZM107.614 85.8513C107.563 86.2763 107.866 86.6621 108.291 86.7132C108.716 86.7642 109.102 86.461 109.153 86.0361L108.384 85.9437L107.614 85.8513ZM109.427 82.9614C109.452 82.5341 109.126 82.1675 108.699 82.1425C108.271 82.1176 107.905 82.4437 107.88 82.871L108.654 82.9162L109.427 82.9614ZM107.963 79.8786C107.964 80.3067 108.312 80.6527 108.74 80.6515C109.168 80.6504 109.514 80.3025 109.513 79.8744L108.738 79.8765L107.963 79.8786ZM109.411 76.7877C109.384 76.3605 109.015 76.0363 108.588 76.0635C108.161 76.0906 107.837 76.459 107.864 76.8861L108.637 76.8369L109.411 76.7877ZM107.584 73.9074C107.637 74.3321 108.024 74.6336 108.449 74.5807C108.873 74.5278 109.175 74.1406 109.122 73.7159L108.353 73.8116L107.584 73.9074ZM108.676 70.6885C108.61 70.2656 108.214 69.9759 107.791 70.0415C107.368 70.1072 107.078 70.5032 107.144 70.9262L107.91 70.8074L108.676 70.6885ZM106.68 67.9344C106.745 68.3574 107.141 68.647 107.564 68.5814C107.987 68.5158 108.277 68.1197 108.211 67.6967L107.446 67.8156L106.68 67.9344ZM107.747 64.7049C107.681 64.282 107.285 63.9923 106.862 64.0579C106.439 64.1236 106.15 64.5196 106.215 64.9426L106.981 64.8238L107.747 64.7049ZM105.751 61.9508C105.817 62.3738 106.213 62.6634 106.636 62.5978C107.059 62.5322 107.349 62.1361 107.283 61.7131L106.517 61.832L105.751 61.9508ZM106.819 58.7213C106.753 58.2984 106.357 58.0087 105.934 58.0743C105.511 58.14 105.221 58.536 105.287 58.959L106.053 58.8402L106.819 58.7213ZM104.823 55.9672C104.888 56.3901 105.284 56.6798 105.707 56.6142C106.13 56.5486 106.42 56.1525 106.354 55.7295L105.589 55.8484L104.823 55.9672ZM105.89 52.7377C105.825 52.3148 105.428 52.0251 105.005 52.0907C104.583 52.1563 104.293 52.5524 104.358 52.9754L105.124 52.8566L105.89 52.7377ZM103.894 49.9836C103.96 50.4065 104.356 50.6962 104.779 50.6306C105.202 50.565 105.492 50.1689 105.426 49.7459L104.66 49.8647L103.894 49.9836ZM104.962 46.7541C104.896 46.3312 104.5 46.0415 104.077 46.1071C103.654 46.1727 103.364 46.5688 103.43 46.9918L104.196 46.8729L104.962 46.7541ZM102.966 44C103.031 44.4229 103.427 44.7126 103.85 44.647C104.273 44.5813 104.563 44.1853 104.497 43.7623L103.732 43.8811L102.966 44ZM104.033 40.7705C103.968 40.3475 103.571 40.0579 103.148 40.1235C102.726 40.1891 102.436 40.5852 102.501 41.0082L103.267 40.8893L104.033 40.7705ZM102.037 38.0164C102.103 38.4393 102.499 38.729 102.922 38.6634C103.345 38.5977 103.635 38.2017 103.569 37.7787L102.803 37.8975L102.037 38.0164ZM103.105 34.7869C103.039 34.3639 102.643 34.0743 102.22 34.1399C101.797 34.2055 101.507 34.6016 101.573 35.0246L102.339 34.9057L103.105 34.7869ZM101.109 32.0328C101.174 32.4557 101.57 32.7454 101.993 32.6798C102.416 32.6141 102.706 32.2181 102.64 31.7951L101.875 31.9139L101.109 32.0328ZM102.176 28.8033C102.111 28.3803 101.714 28.0907 101.291 28.1563C100.869 28.2219 100.579 28.618 100.645 29.041L101.41 28.9221L102.176 28.8033ZM100.18 26.0492C100.246 26.4721 100.642 26.7618 101.065 26.6962C101.488 26.6305 101.778 26.2345 101.712 25.8115L100.946 25.9303L100.18 26.0492ZM101.248 22.8197C101.182 22.3967 100.786 22.1071 100.363 22.1727C99.94 22.2383 99.6504 22.6344 99.716 23.0574L100.482 22.9385L101.248 22.8197ZM99.2518 20.0656C99.3174 20.4885 99.7135 20.7782 100.136 20.7126C100.559 20.6469 100.849 20.2508 100.783 19.8279L100.018 19.9467L99.2518 20.0656ZM100.319 16.8361C100.254 16.4131 99.8575 16.1235 99.4345 16.1891C99.0116 16.2547 98.7219 16.6508 98.7875 17.0738L99.5534 16.9549L100.319 16.8361ZM98.3233 14.082C98.3889 14.5049 98.785 14.7946 99.2079 14.729C99.6309 14.6633 99.9206 14.2672 99.8549 13.8443L99.0891 13.9631L98.3233 14.082ZM99.3907 10.8525C99.3251 10.4295 98.929 10.1399 98.506 10.2055C98.0831 10.2711 97.7934 10.6672 97.859 11.0902L98.6249 10.9713L99.3907 10.8525ZM97.3948 8.09835C97.4604 8.52131 97.8565 8.81098 98.2794 8.74535C98.7024 8.67972 98.9921 8.28364 98.9265 7.86068L98.1606 7.97951L97.3948 8.09835ZM98.4622 4.86887C98.3966 4.44591 98.0005 4.15624 97.5775 4.22187C97.1546 4.2875 96.8649 4.68358 96.9305 5.10654L97.6964 4.9877L98.4622 4.86887ZM96.4663 2.11474C96.5319 2.5377 96.928 2.82737 97.351 2.76173C97.7739 2.6961 98.0636 2.30002 97.998 1.87706L97.2321 1.9959L96.4663 2.11474ZM1 234.5L1.70004 234.832L2.3631 233.437L1.66306 233.104L0.963021 232.771L0.29996 234.167L1 234.5ZM2.98918 230.312L3.68922 230.645L5.01535 227.853L4.31531 227.52L3.61527 227.188L2.28914 229.98L2.98918 230.312ZM5.64143 224.728L6.34147 225.061L7.66759 222.269L6.96755 221.937L6.26751 221.604L4.94139 224.396L5.64143 224.728ZM8.29367 219.145L8.99371 219.477L10.3198 216.685L9.6198 216.353L8.91976 216.02L7.59363 218.812L8.29367 219.145ZM10.9459 213.561L11.646 213.894L12.9721 211.102L12.272 210.769L11.572 210.437L10.2459 213.229L10.9459 213.561ZM13.5982 207.977L14.2982 208.31L15.6243 205.518L14.9243 205.186L14.2242 204.853L12.8981 207.645L13.5982 207.977ZM16.2504 202.394L16.9504 202.726L18.2766 199.934L17.5765 199.602L16.8765 199.269L15.5504 202.061L16.2504 202.394ZM18.9027 196.81L19.6027 197.143L20.9288 194.351L20.2288 194.018L19.5287 193.686L18.2026 196.478L18.9027 196.81ZM21.5549 191.226L22.2549 191.559L23.5811 188.767L22.881 188.435L22.181 188.102L20.8549 190.894L21.5549 191.226ZM24.2071 185.643L24.9072 185.975L26.2333 183.183L25.5333 182.851L24.8332 182.518L23.5071 185.31L24.2071 185.643ZM26.8594 180.059L27.5594 180.392L28.8856 177.6L28.1855 177.267L27.4855 176.935L26.1593 179.727L26.8594 180.059ZM29.5116 174.475L30.2117 174.808L31.5378 172.016L30.8378 171.684L30.1377 171.351L28.8116 174.143L29.5116 174.475ZM32.1639 168.892L32.8639 169.224L34.19 166.432L33.49 166.1L32.79 165.767L31.4638 168.559L32.1639 168.892ZM34.8161 163.308L35.5162 163.641L36.8423 160.849L36.1422 160.516L35.4422 160.184L34.1161 162.976L34.8161 163.308ZM37.4684 157.724L38.1684 158.057L39.4945 155.265L38.7945 154.933L38.0944 154.6L36.7683 157.392L37.4684 157.724ZM40.1206 152.141L40.8206 152.473L42.1468 149.681L41.4467 149.349L40.7467 149.016L39.4206 151.808L40.1206 152.141ZM42.7728 146.557L43.4729 146.89L44.799 144.098L44.099 143.765L43.3989 143.433L42.0728 146.225L42.7728 146.557ZM45.4251 140.973L46.1251 141.306L47.4512 138.514L46.7512 138.182L46.0512 137.849L44.725 140.641L45.4251 140.973ZM48.0773 135.39L48.7774 135.722L50.1035 132.93L49.4035 132.598L48.7034 132.265L47.3773 135.057L48.0773 135.39ZM50.7296 129.806L51.4296 130.139L52.7557 127.347L52.0557 127.014L51.3556 126.682L50.0295 129.474L50.7296 129.806ZM53.3818 124.222L54.0819 124.555L55.408 121.763L54.7079 121.431L54.0079 121.098L52.6818 123.89L53.3818 124.222ZM56.0341 118.639L56.7341 118.971L58.0602 116.179L57.3602 115.847L56.6601 115.514L55.334 118.306L56.0341 118.639ZM58.6863 113.055L59.3863 113.388L60.7125 110.596L60.0124 110.263L59.3124 109.931L57.9863 112.723L58.6863 113.055ZM61.3386 107.471L62.0386 107.804L62.7017 106.408L62.0016 106.075L61.3016 105.743L60.6385 107.139L61.3386 107.471ZM62.0016 106.075L62.7017 106.408C62.9205 105.947 63.1247 105.482 63.3143 105.012L62.5957 104.722L61.8771 104.432C61.699 104.873 61.5071 105.31 61.3016 105.743L62.0016 106.075ZM63.5367 101.921L64.2848 102.124C64.5514 101.139 64.7577 100.143 64.904 99.1402L64.1371 99.0283L63.3702 98.9164C63.2328 99.8581 63.039 100.794 62.7887 101.719L63.5367 101.921ZM64.3885 96.0844L65.1632 96.1041C65.1892 95.0879 65.1544 94.0709 65.0592 93.0589L64.2876 93.1314L63.516 93.204C63.6055 94.1547 63.6381 95.11 63.6137 96.0646L64.3885 96.0844ZM63.8359 90.2115L64.5934 90.0476C64.3791 89.0573 64.1052 88.0774 63.7721 87.1132L63.0396 87.3663L62.3071 87.6194C62.6199 88.525 62.8772 89.4454 63.0785 90.3755L63.8359 90.2115ZM61.9096 84.6362L62.6068 84.2976C62.3855 83.8421 62.15 83.3917 61.9003 82.947L61.2246 83.3265L60.5488 83.7061C60.7834 84.1238 61.0047 84.5469 61.2125 84.9748L61.9096 84.6362ZM61.2246 83.3265L61.9003 82.947C61.6408 82.4851 61.3695 82.0346 61.0868 81.5957L60.4352 82.0153L59.7836 82.4349C60.0494 82.8476 60.3047 83.2713 60.5488 83.7061L61.2246 83.3265ZM58.6245 79.5498L59.2196 79.0534C58.5388 78.2372 57.8144 77.4728 57.0521 76.7614L56.5233 77.328L55.9945 77.8946C56.71 78.5623 57.39 79.2799 58.0293 80.0463L58.6245 79.5498ZM54.1622 75.3856L54.6163 74.7575C53.7593 74.1379 52.8685 73.5757 51.9501 73.0721L51.5774 73.7516L51.2048 74.4311C52.0673 74.9041 52.9037 75.432 53.7082 76.0136L54.1622 75.3856ZM48.8102 72.4496L49.0964 71.7293C48.1174 71.3404 47.1165 71.0127 46.1001 70.7473L45.9044 71.4972L45.7086 72.2471C46.6638 72.4965 47.6043 72.8044 48.5241 73.1698L48.8102 72.4496ZM42.9037 70.9072L43.0064 70.139C41.9652 69.9998 40.9148 69.9242 39.8615 69.9135L39.8536 70.6884L39.8457 71.4634C40.8354 71.4735 41.8225 71.5445 42.801 71.6753L42.9037 70.9072ZM36.7994 70.8458L36.7118 70.0758C35.6711 70.1942 34.6337 70.3773 33.606 70.6262L33.7884 71.3795L33.9709 72.1327C34.9357 71.8989 35.9097 71.727 36.887 71.6158L36.7994 70.8458ZM30.8677 72.2833L30.5928 71.5587C29.6179 71.9285 28.658 72.3618 27.7188 72.8594L28.0817 73.5442L28.4446 74.229C29.3264 73.7617 30.2275 73.355 31.1425 73.0079L30.8677 72.2833ZM25.4723 75.1405L25.0281 74.5054C24.6003 74.8047 24.1785 75.1189 23.7635 75.4482L24.2452 76.0553L24.727 76.6624C25.1175 76.3525 25.5142 76.0569 25.9165 75.7756L25.4723 75.1405ZM24.2452 76.0553L23.7635 75.4482L23.5159 75.6447L23.9976 76.2518L24.4794 76.8589L24.727 76.6624L24.2452 76.0553ZM23.5024 76.6447L23.0207 76.0376L22.7731 76.2341L23.2548 76.8412L23.7365 77.4483L23.9841 77.2518L23.5024 76.6447ZM23.2548 76.8412L22.7731 76.2341C22.3569 76.5644 21.9532 76.9044 21.5623 77.2536L22.0786 77.8316L22.5949 78.4096C22.9634 78.0805 23.3439 77.7598 23.7365 77.4483L23.2548 76.8412ZM19.9115 80.0109L19.3304 79.4981C18.6253 80.2971 17.9755 81.1303 17.3816 81.9924L18.0198 82.4321L18.658 82.8717C19.217 82.0603 19.8286 81.276 20.4925 80.5238L19.9115 80.0109ZM16.4321 85.0619L15.7458 84.7019C15.253 85.6412 14.8195 86.6051 14.4457 87.5877L15.1701 87.8632L15.8945 88.1388C16.2464 87.2136 16.6545 86.3061 17.1184 85.4219L16.4321 85.0619ZM14.2503 90.7951L13.4984 90.6074C13.2425 91.6329 13.0479 92.6715 12.9151 93.7172L13.6839 93.8149L14.4527 93.9125C14.5779 92.9272 14.7612 91.9487 15.0023 90.9827L14.2503 90.7951ZM13.4773 96.8805L12.7023 96.8741C12.6936 97.9282 12.7471 98.9835 12.8632 100.034L13.6335 99.949L14.4038 99.8639C14.2945 98.8743 14.2441 97.8801 14.2523 96.8869L13.4773 96.8805ZM14.1516 102.978L13.3968 103.154C13.6354 104.177 13.9356 105.191 14.2979 106.188L15.0263 105.923L15.7547 105.658C15.4137 104.72 15.131 103.766 14.9064 102.802L14.1516 102.978ZM16.2469 108.742L15.5554 109.092C16.0283 110.026 16.5604 110.939 17.152 111.825L17.7966 111.395L18.4412 110.965C17.8842 110.13 17.3834 109.271 16.9383 108.392L16.2469 108.742ZM19.6517 113.845L19.0625 114.349C19.4031 114.747 19.7575 115.139 20.1256 115.522L20.6844 114.985L21.2432 114.448C20.896 114.086 20.5619 113.718 20.2409 113.342L19.6517 113.845ZM20.6844 114.985L20.1256 115.522L20.9424 116.372L21.5012 115.835L22.06 115.298L21.2432 114.448L20.6844 114.985ZM23.1347 117.535L22.5759 118.072L24.2094 119.772L24.7682 119.235L25.327 118.698L23.6935 116.998L23.1347 117.535ZM26.4017 120.935L25.8429 121.472L26.6597 122.322L27.2185 121.785L27.7773 121.248L26.9606 120.398L26.4017 120.935ZM27.2185 121.785L26.6597 122.322C27.0234 122.7 27.3945 123.069 27.7724 123.429L28.3068 122.868L28.8412 122.307C28.4799 121.963 28.1251 121.609 27.7773 121.248L27.2185 121.785ZM30.6214 124.883L30.1391 125.489C30.9618 126.143 31.81 126.757 32.6808 127.331L33.107 126.684L33.5332 126.036C32.7008 125.488 31.89 124.901 31.1037 124.276L30.6214 124.883ZM35.7431 128.255L35.3763 128.938C36.3 129.434 37.2437 129.888 38.2043 130.298L38.5088 129.586L38.8133 128.873C37.8949 128.481 36.9928 128.047 36.1099 127.572L35.7431 128.255ZM41.3822 130.664L41.1423 131.401C42.1375 131.725 43.1467 132.005 44.1667 132.239L44.34 131.483L44.5133 130.728C43.5382 130.504 42.5734 130.237 41.622 129.927L41.3822 130.664ZM47.3591 132.036L47.2538 132.803C48.2887 132.945 49.3314 133.042 50.3787 133.091L50.4152 132.317L50.4518 131.543C49.4506 131.495 48.4539 131.404 47.4645 131.268L47.3591 132.036ZM53.4843 132.325L53.5169 133.099C54.5587 133.055 55.6019 132.964 56.6438 132.827L56.5421 132.058L56.4405 131.29C55.4446 131.422 54.4474 131.508 53.4516 131.55L53.4843 132.325ZM59.5634 131.521L59.7331 132.277C60.2422 132.162 60.7503 132.037 61.257 131.899L61.0538 131.151L60.8507 130.403C60.3663 130.535 59.8805 130.655 59.3937 130.764L59.5634 131.521ZM61.0538 131.151L61.257 131.899L62.605 131.533L62.4018 130.785L62.1987 130.037L60.8507 130.403L61.0538 131.151ZM65.0979 130.053L65.301 130.801L67.997 130.068L67.7939 129.321L67.5908 128.573L64.8947 129.305L65.0979 130.053ZM70.4899 128.588L70.6931 129.336L72.0411 128.97L71.8379 128.222L71.6348 127.474L70.2868 127.84L70.4899 128.588ZM71.8379 128.222L72.0411 128.97C72.54 128.835 73.0354 128.692 73.5271 128.543L73.3016 127.801L73.0761 127.06C72.5993 127.205 72.1188 127.343 71.6348 127.474L71.8379 128.222ZM76.1808 126.83L76.4506 127.556C77.4207 127.196 78.3746 126.808 79.3118 126.393L78.9983 125.685L78.6848 124.976C77.7764 125.378 76.8515 125.754 75.9109 126.103L76.1808 126.83ZM81.7405 124.37L82.0966 125.059C83.014 124.584 83.9133 124.083 84.7936 123.557L84.396 122.892L83.9985 122.227C83.1452 122.736 82.2736 123.222 81.3843 123.682L81.7405 124.37ZM86.9572 121.253L87.3947 121.893C88.2467 121.31 89.0785 120.703 89.8893 120.072L89.4136 119.461L88.9378 118.849C88.1519 119.46 87.3456 120.049 86.5197 120.613L86.9572 121.253ZM91.7553 117.522L92.2674 118.104C93.0413 117.423 93.7931 116.719 94.5218 115.994L93.9752 115.445L93.4287 114.895C92.7222 115.598 91.9934 116.28 91.2432 116.941L91.7553 117.522ZM96.0647 113.236L96.6436 113.751C97.3284 112.982 97.9893 112.192 98.6253 111.384L98.0162 110.905L97.4071 110.425C96.7905 111.209 96.1498 111.975 95.4858 112.721L96.0647 113.236ZM99.8231 108.459L100.46 108.901C101.046 108.055 101.607 107.191 102.141 106.311L101.479 105.909L100.816 105.507C100.298 106.36 99.7547 107.197 99.1862 108.018L99.8231 108.459ZM102.977 103.263L103.663 103.625C104.142 102.715 104.594 101.79 105.019 100.851L104.312 100.532L103.606 100.213C103.195 101.123 102.756 102.02 102.291 102.902L102.977 103.263ZM105.479 97.7245L106.204 98.0002C106.569 97.0395 106.906 96.0664 107.214 95.0822L106.474 94.8511L105.734 94.6201C105.436 95.5742 105.11 96.5175 104.755 97.4489L105.479 97.7245ZM107.292 91.9232L108.044 92.1088C108.29 91.1116 108.506 90.1048 108.691 89.0894L107.929 88.9501L107.167 88.8109C106.987 89.7951 106.777 90.7711 106.539 91.7377L107.292 91.9232ZM108.384 85.9437L109.153 86.0361C109.275 85.0179 109.367 83.9926 109.427 82.9614L108.654 82.9162L107.88 82.871C107.821 83.8706 107.733 84.8644 107.614 85.8513L108.384 85.9437ZM108.738 79.8765L109.513 79.8744C109.51 78.8497 109.476 77.8204 109.411 76.7877L108.637 76.8369L107.864 76.8861C107.928 77.8874 107.96 78.8853 107.963 79.8786L108.738 79.8765ZM108.353 73.8116L109.122 73.7159C109.058 73.2059 108.987 72.6954 108.908 72.1844L108.142 72.3033L107.376 72.4221C107.453 72.9177 107.522 73.4128 107.584 73.9074L108.353 73.8116ZM108.142 72.3033L108.908 72.1844L108.676 70.6885L107.91 70.8074L107.144 70.9262L107.376 72.4221L108.142 72.3033ZM107.446 67.8156L108.211 67.6967L107.747 64.7049L106.981 64.8238L106.215 64.9426L106.68 67.9344L107.446 67.8156ZM106.517 61.832L107.283 61.7131L106.819 58.7213L106.053 58.8402L105.287 58.959L105.751 61.9508L106.517 61.832ZM105.589 55.8484L106.354 55.7295L105.89 52.7377L105.124 52.8566L104.358 52.9754L104.823 55.9672L105.589 55.8484ZM104.66 49.8647L105.426 49.7459L104.962 46.7541L104.196 46.8729L103.43 46.9918L103.894 49.9836L104.66 49.8647ZM103.732 43.8811L104.497 43.7623L104.033 40.7705L103.267 40.8893L102.501 41.0082L102.966 44L103.732 43.8811ZM102.803 37.8975L103.569 37.7787L103.105 34.7869L102.339 34.9057L101.573 35.0246L102.037 38.0164L102.803 37.8975ZM101.875 31.9139L102.64 31.7951L102.176 28.8033L101.41 28.9221L100.645 29.041L101.109 32.0328L101.875 31.9139ZM100.946 25.9303L101.712 25.8115L101.248 22.8197L100.482 22.9385L99.716 23.0574L100.18 26.0492L100.946 25.9303ZM100.018 19.9467L100.783 19.8279L100.319 16.8361L99.5534 16.9549L98.7875 17.0738L99.2518 20.0656L100.018 19.9467ZM99.0891 13.9631L99.8549 13.8443L99.3907 10.8525L98.6249 10.9713L97.859 11.0902L98.3233 14.082L99.0891 13.9631ZM98.1606 7.97951L98.9265 7.86068L98.4622 4.86887L97.6964 4.9877L96.9305 5.10654L97.3948 8.09835L98.1606 7.97951Z" fill="#6061F7"/>
</svg>
