<svg width="24" height="24" viewBox="0 0 24 24" fill="none" xmlns="http://www.w3.org/2000/svg">
<g clip-path="url(#clip0_86_364)">
<g clip-path="url(#clip1_86_364)">
<g clip-path="url(#clip2_86_364)">
<path d="M0 5.59489C0 2.50491 2.50491 0 5.59489 0H18.1834C21.2733 0 23.7783 2.50491 23.7783 5.59489V18.1834C23.7783 21.2733 21.2733 23.7783 18.1834 23.7783H5.59489C2.50491 23.7783 0 21.2733 0 18.1834V5.59489Z" fill="#6061F7"/>
<path d="M18.4369 11.343C18.9198 11.343 19.1213 10.7227 18.7291 10.4367L12.7619 6.09609C12.6767 6.03366 12.5738 6 12.4682 6C12.3626 6 12.2597 6.03366 12.1744 6.09609L6.20726 10.4367C5.81507 10.7211 6.01663 11.343 6.50101 11.343H7.4682V17.1867H6.3432C6.27445 17.1867 6.2182 17.243 6.2182 17.3117V18.1242C6.2182 18.193 6.27445 18.2492 6.3432 18.2492H18.5932C18.6619 18.2492 18.7182 18.193 18.7182 18.1242V17.3117C18.7182 17.243 18.6619 17.1867 18.5932 17.1867H17.4682V11.343H18.4369ZM10.4213 17.1867H8.5932V11.343H10.4213V17.1867ZM13.3744 17.1867H11.5463V11.343H13.3744V17.1867ZM16.3432 17.1867H14.4994V11.343H16.3432V17.1867Z" fill="white"/>
</g>
</g>
</g>
<defs>
<clipPath id="clip0_86_364">
<rect width="24" height="24" fill="white"/>
</clipPath>
<clipPath id="clip1_86_364">
<rect width="24" height="24" fill="white"/>
</clipPath>
<clipPath id="clip2_86_364">
<rect width="24" height="24" fill="white"/>
</clipPath>
</defs>
</svg>
