<svg width="24" height="24" viewBox="0 0 24 24" fill="none" xmlns="http://www.w3.org/2000/svg">
<g clip-path="url(#clip0_86_354)">
<g clip-path="url(#clip1_86_354)">
<path d="M0.216797 5.59489C0.216797 2.50491 2.72171 0 5.81168 0H18.4002C21.4901 0 23.9951 2.50491 23.9951 5.59489V18.1834C23.9951 21.2733 21.4901 23.7783 18.4002 23.7783H5.81168C2.72171 23.7783 0.216797 21.2733 0.216797 18.1834V5.59489Z" fill="#6061F7"/>
<path fill-rule="evenodd" clip-rule="evenodd" d="M16.1077 4.62911C15.9599 4.39288 15.7421 4.20863 15.4846 4.10199C15.2271 3.99535 14.9428 3.97164 14.6712 4.03415L12.7438 4.47689C12.5462 4.52229 12.341 4.52229 12.1435 4.47689L10.216 4.03415C9.94442 3.97164 9.66011 3.99535 9.40264 4.10199C9.14517 4.20863 8.92735 4.39288 8.77951 4.62911L7.72895 6.30572C7.62175 6.47724 7.47703 6.62196 7.30551 6.73024L5.6289 7.7808C5.39308 7.92851 5.20909 8.14597 5.10247 8.403C4.99586 8.66003 4.9719 8.94388 5.03394 9.21514L5.47667 11.1447C5.52191 11.3419 5.52191 11.5468 5.47667 11.744L5.03394 13.6725C4.97166 13.9439 4.9955 14.228 5.10212 14.4853C5.20875 14.7425 5.39287 14.9602 5.6289 15.1079L7.30551 16.1585C7.47703 16.2657 7.62175 16.4104 7.73002 16.5819L8.78058 18.2585C9.08289 18.742 9.65963 18.9811 10.216 18.8535L12.1435 18.4108C12.341 18.3654 12.5462 18.3654 12.7438 18.4108L14.6723 18.8535C14.9437 18.9158 15.2278 18.8919 15.4851 18.7853C15.7423 18.6787 15.9599 18.4946 16.1077 18.2585L17.1583 16.5819C17.2655 16.4104 17.4102 16.2657 17.5817 16.1585L19.2594 15.1079C19.4954 14.9599 19.6795 14.7421 19.7859 14.4846C19.8924 14.2271 19.9159 13.9429 19.8533 13.6715L19.4116 11.744C19.3662 11.5465 19.3662 11.3412 19.4116 11.1437L19.8544 9.21514C19.9167 8.94383 19.8931 8.65983 19.7866 8.4026C19.6802 8.14536 19.4963 7.92765 19.2605 7.77973L17.5828 6.72917C17.4115 6.62177 17.2668 6.47701 17.1594 6.30572L16.1077 4.62911ZM15.5685 9.05327C15.6348 8.93134 15.6512 8.78846 15.6143 8.65467C15.5774 8.52088 15.4901 8.40662 15.3706 8.33593C15.2512 8.26524 15.109 8.24363 14.974 8.27565C14.8389 8.30768 14.7216 8.39083 14.6466 8.50762L11.8433 13.2523L10.1506 11.6314C10.1004 11.5799 10.0403 11.5389 9.97393 11.5111C9.90755 11.4833 9.83625 11.4691 9.76428 11.4694C9.69231 11.4697 9.62113 11.4845 9.55501 11.5129C9.48888 11.5414 9.42915 11.5828 9.37939 11.6348C9.32962 11.6868 9.29084 11.7483 9.26535 11.8156C9.23986 11.8829 9.22819 11.9547 9.23103 12.0266C9.23388 12.0985 9.25118 12.1691 9.2819 12.2342C9.31262 12.2993 9.35613 12.3575 9.40985 12.4054L11.5903 14.4947C11.6487 14.5506 11.7189 14.5924 11.7957 14.6173C11.8725 14.6422 11.954 14.6494 12.0339 14.6383C12.1139 14.6273 12.1904 14.5983 12.2576 14.5536C12.3248 14.5089 12.3811 14.4496 12.4222 14.38L15.5685 9.05327Z" fill="white"/>
</g>
</g>
<defs>
<clipPath id="clip0_86_354">
<rect width="24" height="24" fill="white"/>
</clipPath>
<clipPath id="clip1_86_354">
<rect width="24" height="24" fill="white"/>
</clipPath>
</defs>
</svg>
