<svg width="19" height="19" viewBox="0 0 19 19" fill="none" xmlns="http://www.w3.org/2000/svg">
<g clip-path="url(#clip0_17_62)">
<path d="M10.7459 10.0938H9.13639C8.88973 10.094 8.65082 10.18 8.46063 10.337C8.27044 10.4941 8.14083 10.7124 8.09402 10.9546C8.04721 11.1968 8.08613 11.4477 8.2041 11.6643C8.32206 11.881 8.51173 12.0498 8.74056 12.1418L10.3746 12.7958C10.6034 12.8878 10.7931 13.0567 10.911 13.2733C11.029 13.4899 11.0679 13.7408 11.0211 13.983C10.9743 14.2252 10.8447 14.4435 10.6545 14.6006C10.4643 14.7576 10.2254 14.8436 9.97872 14.8438H8.37085M9.55835 10.0938V9.50006M9.55835 15.4376V14.8438M5.4021 6.53131H13.7146M12.3735 3.98689L13.5119 1.71006C13.5676 1.59862 13.5867 1.47251 13.5667 1.34958C13.5467 1.22665 13.4886 1.11311 13.4005 1.02504C13.3125 0.936976 13.1989 0.878831 13.076 0.858839C12.9531 0.838846 12.827 0.858018 12.7155 0.913641L11.2113 1.66414C11.0819 1.72874 10.9334 1.74388 10.7936 1.70671C10.6538 1.66954 10.5324 1.58262 10.4521 1.46227L10.0539 0.858224C9.99971 0.776905 9.92625 0.71023 9.84008 0.664115C9.7539 0.618 9.65767 0.593872 9.55993 0.593872C9.46219 0.593872 9.36597 0.618 9.27979 0.664115C9.19362 0.71023 9.12016 0.776905 9.06593 0.858224L8.66297 1.46227C8.58274 1.58262 8.46132 1.66954 8.32153 1.70671C8.18174 1.74388 8.03319 1.72874 7.90377 1.66414L6.40197 0.913641C6.2905 0.858278 6.16447 0.839295 6.04164 0.859365C5.91881 0.879436 5.80537 0.937549 5.71732 1.02551C5.62927 1.11348 5.57104 1.22685 5.55085 1.34967C5.53066 1.47248 5.54951 1.59853 5.60477 1.71006L6.72102 3.94256" stroke="#6061F7" stroke-width="1.55" stroke-linecap="round" stroke-linejoin="round"/>
<path d="M5.72906 8.3125L3.54406 10.8458C3.00938 11.5409 2.67997 12.3717 2.59315 13.2443C2.50632 14.1169 2.66555 14.9964 3.05279 15.7831C3.44004 16.5699 4.03983 17.2325 4.78425 17.696C5.52868 18.1594 6.38799 18.4052 7.2649 18.4055H11.8486L14.3293 17.696C14.3293 17.696 15.6735 16.5699 16.0607 15.7831C16.448 14.9964 16.6072 14.1169 16.5204 13.2443C16.4336 12.3717 16.1042 11.5409 15.5695 10.8458L13.3845 8.3125" stroke="#6061F7" stroke-width="1.55" stroke-linecap="round" stroke-linejoin="round"/>
</g>
<defs>
<clipPath id="clip0_17_62">
<rect width="19" height="19" fill="white" transform="translate(-0.000244141)"/>
</clipPath>
</defs>
</svg>
