<svg width="23" height="30" viewBox="0 0 23 30" fill="none" xmlns="http://www.w3.org/2000/svg">
<path d="M12.3038 7.77417V26.2303C12.3038 26.629 12.0005 26.9522 11.6265 26.9522C11.2525 26.9522 10.9492 26.629 10.9492 26.2303V7.77417C10.9492 7.37554 11.2525 7.05225 11.6265 7.05225C12.0005 7.05225 12.3038 7.37554 12.3038 7.77417Z" fill="black"/>
<path d="M14.5992 7.77417V26.2303C14.5992 26.629 14.2959 26.9522 13.9219 26.9522C13.5479 26.9522 13.2446 26.629 13.2446 26.2303V7.77417C13.2446 7.37554 13.5479 7.05225 13.9219 7.05225C14.2959 7.05225 14.5992 7.37554 14.5992 7.77417Z" fill="black"/>
<path d="M10.3362 24.6354C9.52424 24.2475 8.88717 23.7095 8.42563 23.0208C7.96379 22.3322 7.7253 21.5369 7.71045 20.6346H9.87797C9.95222 21.4104 10.254 22.0633 10.7829 22.5935C11.3116 23.124 12.0826 23.3888 13.0957 23.3888C14.1088 23.3888 14.8275 23.1316 15.3862 22.6172C15.9448 22.1031 16.224 21.4419 16.224 20.6346C16.224 20.0015 16.0601 19.4871 15.7325 19.0914C15.4046 18.6959 14.995 18.3949 14.5035 18.1891C14.0119 17.9836 13.3487 17.7618 12.5148 17.5241C11.4868 17.2392 10.6635 16.9542 10.0455 16.6692C9.42712 16.3842 8.89816 15.9373 8.45889 15.3276C8.01933 14.7185 7.79985 13.8992 7.79985 12.8701C7.79985 11.9678 8.01577 11.1687 8.44791 10.4719C8.87975 9.77538 9.48711 9.23729 10.2691 8.85731C11.0511 8.47734 11.9487 8.28735 12.9617 8.28735C14.4215 8.28735 15.6169 8.67553 16.5483 9.45095C17.4791 10.2267 18.0042 11.2555 18.1236 12.5378H15.889C15.8141 11.9047 15.5014 11.3467 14.9505 10.8639C14.3992 10.3813 13.6692 10.1396 12.7607 10.1396C11.9115 10.1396 11.2189 10.3734 10.6825 10.8402C10.1462 11.3073 9.87797 11.9602 9.87797 12.7991C9.87797 13.4009 10.0378 13.8913 10.3585 14.2713C10.6787 14.6513 11.0737 14.9404 11.543 15.1379C12.0122 15.3361 12.6716 15.5618 13.5207 15.8146C14.5486 16.1153 15.3755 16.4123 16.0013 16.7049C16.627 16.998 17.1631 17.449 17.6101 18.0584C18.0571 18.6678 18.2804 19.495 18.2804 20.5396C18.2804 21.3469 18.0794 22.1069 17.6772 22.8192C17.2751 23.5315 16.679 24.1096 15.8896 24.5524C15.0999 24.9958 14.1691 25.2174 13.0963 25.2174C12.0235 25.2174 11.1482 25.0236 10.3365 24.6357L10.3362 24.6354Z" fill="black"/>
</svg>
