<svg width="28" height="28" viewBox="0 0 28 28" fill="none" xmlns="http://www.w3.org/2000/svg">
<path fill-rule="evenodd" clip-rule="evenodd" d="M16.8125 16.8125H23.8438C23.9681 16.8125 24.0873 16.7631 24.1752 16.6752C24.2631 16.5873 24.3125 16.4681 24.3125 16.3438V11.6562C24.3125 11.5319 24.2631 11.4127 24.1752 11.3248C24.0873 11.2369 23.9681 11.1875 23.8438 11.1875H16.8125V4.15625C16.8125 4.03193 16.7631 3.9127 16.6752 3.82479C16.5873 3.73689 16.4681 3.6875 16.3438 3.6875H11.6562C11.5319 3.6875 11.4127 3.73689 11.3248 3.82479C11.2369 3.9127 11.1875 4.03193 11.1875 4.15625V11.1875H4.15625C4.03193 11.1875 3.9127 11.2369 3.82479 11.3248C3.73689 11.4127 3.6875 11.5319 3.6875 11.6562V16.3438C3.6875 16.6025 3.8975 16.8125 4.15625 16.8125H11.1875V23.8438C11.1875 24.1025 11.3975 24.3125 11.6562 24.3125H16.3438C16.4681 24.3125 16.5873 24.2631 16.6752 24.1752C16.7631 24.0873 16.8125 23.9681 16.8125 23.8438V16.8125ZM8.375 8.375H4.15625C3.28601 8.375 2.45141 8.7207 1.83606 9.33606C1.2207 9.95141 0.875 10.786 0.875 11.6562V16.3438C0.875 18.155 2.345 19.625 4.15625 19.625H8.375V23.8438C8.375 25.655 9.845 27.125 11.6562 27.125H16.3438C17.214 27.125 18.0486 26.7793 18.6639 26.1639C19.2793 25.5486 19.625 24.714 19.625 23.8438V19.625H23.8438C24.714 19.625 25.5486 19.2793 26.1639 18.6639C26.7793 18.0486 27.125 17.214 27.125 16.3438V11.6562C27.125 10.786 26.7793 9.95141 26.1639 9.33606C25.5486 8.7207 24.714 8.375 23.8438 8.375H19.625V4.15625C19.625 3.28601 19.2793 2.45141 18.6639 1.83606C18.0486 1.2207 17.214 0.875 16.3438 0.875H11.6562C10.786 0.875 9.95141 1.2207 9.33606 1.83606C8.7207 2.45141 8.375 3.28601 8.375 4.15625V8.375Z" fill="#6165FF"/>
</svg>
