<svg width="15" height="18" viewBox="0 0 15 18" fill="none" xmlns="http://www.w3.org/2000/svg">
<path d="M9.48688 5.6395L10.6719 8.2645H4.67188L5.73688 5.6395H9.48688ZM5.42188 9.0145C5.00938 9.0145 4.67188 9.352 4.67188 9.7645C4.67188 10.177 5.00938 10.5145 5.42188 10.5145C5.83437 10.5145 6.17188 10.177 6.17188 9.7645C6.17188 9.352 5.83437 9.0145 5.42188 9.0145ZM9.92188 9.0145C9.50937 9.0145 9.17188 9.352 9.17188 9.7645C9.17188 10.177 9.50937 10.5145 9.92188 10.5145C10.3344 10.5145 10.6719 10.177 10.6719 9.7645C10.6719 9.352 10.3344 9.0145 9.92188 9.0145ZM14.4219 3.7645V8.2645C14.4219 12.427 11.5419 16.3195 7.67188 17.2645C3.80188 16.3195 0.921875 12.427 0.921875 8.2645V3.7645L7.67188 0.764496L14.4219 3.7645ZM12.1719 9.0145L10.5519 5.2645C10.4019 4.8295 9.98188 4.5145 9.48688 4.5145H5.73688C5.24188 4.5145 4.82188 4.8295 4.67188 5.2645L3.17188 9.0145V12.0145C3.17188 12.427 3.50938 12.7645 3.92188 12.7645H4.67188C5.08437 12.7645 5.42188 12.427 5.42188 12.0145V11.2645H9.92188V12.0145C9.92188 12.427 10.2594 12.7645 10.6719 12.7645H11.4219C11.8344 12.7645 12.1719 12.427 12.1719 12.0145V9.0145Z" fill="black"/>
</svg>
