<svg width="26" height="28" viewBox="0 0 26 28" fill="none" xmlns="http://www.w3.org/2000/svg">
<path d="M1.75 11.7925L2.68375 11.7125C2.66223 11.4724 2.54904 11.2498 2.3677 11.091C2.18636 10.9321 1.9508 10.8492 1.70995 10.8595C1.4691 10.8698 1.24147 10.9725 1.07435 11.1462C0.907224 11.32 0.813448 11.5514 0.8125 11.7925H1.75ZM23.295 14.0712L22.4125 19.1712L24.2612 19.4912L25.1425 14.3912L23.295 14.0712ZM14.5562 25.5625H8.745V27.4375H14.5562V25.5625ZM7.60625 24.5162L6.59125 12.775L4.7225 12.9362L5.73875 24.6775L7.60625 24.5162ZM22.4125 19.1712C21.7787 22.8337 18.4762 25.5625 14.5562 25.5625V27.4375C19.3387 27.4375 23.4637 24.1012 24.2612 19.4912L22.4125 19.1712ZM14.5687 5.37499L13.74 10.4312L15.59 10.7337L16.4187 5.67874L14.5687 5.37499ZM6.985 11.8075L8.78375 10.2575L7.55875 8.83749L5.7625 10.3875L6.985 11.8075ZM12.055 5.21499L12.65 2.92249L10.835 2.45249L10.24 4.74374L12.055 5.21499ZM13.5475 2.47249L13.7287 2.53124L14.3025 0.746237L14.1212 0.687487L13.5475 2.47249ZM11.1537 7.51999C11.544 6.78987 11.8465 6.01616 12.055 5.21499L10.24 4.74374C10.0678 5.4016 9.81942 6.03714 9.5 6.63749L11.1537 7.51999ZM13.7287 2.53124C13.9068 2.58581 14.0684 2.68422 14.1985 2.81744C14.3287 2.95067 14.4233 3.11444 14.4737 3.29374L16.2887 2.82374C16.1601 2.33786 15.9105 1.89249 15.5632 1.5292C15.2158 1.16591 14.7821 0.896544 14.3025 0.746237L13.7287 2.53124ZM12.65 2.92249C12.6753 2.83263 12.7196 2.74928 12.78 2.6781C12.8404 2.60692 12.9155 2.54958 13 2.50999L12.1862 0.821237C11.5212 1.14124 11.0212 1.73374 10.835 2.45249L12.65 2.92249ZM13 2.50999C13.1712 2.42877 13.3668 2.41537 13.5475 2.47249L14.1212 0.687487C13.4828 0.483401 12.7905 0.531254 12.1862 0.821237L13 2.50999ZM15.6925 12.73H22.1675V10.855H15.6925V12.73ZM3.89875 25.7575L2.68375 11.7125L0.81625 11.8737L2.02875 25.9187L3.89875 25.7575ZM2.6875 25.8912V11.7925H0.8125V25.8912H2.6875ZM2.02875 25.9187C2.02494 25.8733 2.03186 25.8276 2.04667 25.7845C2.06147 25.7414 2.08508 25.7018 2.116 25.6683C2.14691 25.6348 2.18446 25.6081 2.22625 25.5899C2.26804 25.5717 2.31316 25.5623 2.35875 25.5625V27.4375C3.26625 27.4375 3.97625 26.66 3.89875 25.7575L2.02875 25.9187ZM16.4187 5.67874C16.5759 4.72847 16.5316 3.75579 16.2887 2.82374L14.4737 3.29499C14.651 3.97397 14.6834 4.68267 14.5687 5.37499L16.4187 5.67874ZM8.745 25.5625C8.45876 25.562 8.18309 25.4543 7.97231 25.2607C7.76154 25.067 7.63093 24.8014 7.60625 24.5162L5.73875 24.6775C5.80379 25.4302 6.1486 26.1312 6.70513 26.6421C7.26166 27.1531 7.98949 27.4369 8.745 27.4375V25.5625ZM8.78375 10.2575C9.63375 9.52499 10.5487 8.65374 11.155 7.51999L9.5 6.63749C9.0675 7.44874 8.37875 8.13249 7.55875 8.83749L8.78375 10.2575ZM25.1425 14.3912C25.2178 13.9575 25.1973 13.5125 25.0825 13.0875C24.9677 12.6625 24.7613 12.2677 24.4779 11.9308C24.1945 11.5939 23.8409 11.3231 23.4417 11.1372C23.0426 10.9514 22.6077 10.8551 22.1675 10.855V12.73C22.8762 12.73 23.4175 13.37 23.295 14.0712L25.1425 14.3912ZM2.35875 25.5625C2.54125 25.5625 2.6875 25.71 2.6875 25.8912H0.8125C0.8125 26.7437 1.50375 27.4375 2.35875 27.4375V25.5625ZM13.74 10.4312C13.6934 10.7145 13.709 11.0044 13.7856 11.281C13.8623 11.5576 13.9982 11.8143 14.184 12.0331C14.3698 12.2519 14.6009 12.4277 14.8614 12.5482C15.1219 12.6688 15.4055 12.73 15.6925 12.73V10.855C15.6772 10.8551 15.6622 10.853 15.6483 10.8466C15.6345 10.8402 15.6223 10.8308 15.6125 10.8191C15.6027 10.8074 15.5956 10.7937 15.5917 10.7789C15.5878 10.7642 15.5872 10.7487 15.59 10.7337L13.74 10.4312ZM6.59125 12.775C6.576 12.594 6.6026 12.4119 6.67125 12.2438C6.73991 12.0756 6.84743 11.9261 6.985 11.8075L5.76 10.3862C5.39768 10.6989 5.11471 11.0931 4.93436 11.5364C4.754 11.9797 4.68139 12.4594 4.7225 12.9362L6.59125 12.775Z" fill="#6165FF"/>
</svg>
