<svg width="26" height="30" viewBox="0 0 26 30" fill="none" xmlns="http://www.w3.org/2000/svg">
<path fill-rule="evenodd" clip-rule="evenodd" d="M15.9016 18.46C15.0262 18.1813 14.1025 18.0876 13.1891 18.185C12.8431 18.1989 12.4969 18.1648 12.1603 18.0838C12.0465 18.0649 11.9385 18.02 11.8448 17.9525C11.7512 17.8851 11.6743 17.797 11.6203 17.695C11.2578 16.9288 11.7328 16.4388 12.4116 16.1125C13.24 15.7795 14.1479 15.697 15.0228 15.875C15.1143 15.8985 15.2113 15.8854 15.2932 15.8385C15.3752 15.7916 15.4356 15.7145 15.4616 15.6238C15.4855 15.5323 15.4728 15.4351 15.426 15.3529C15.3793 15.2707 15.3024 15.21 15.2116 15.1838C14.7139 15.0368 14.198 14.9611 13.6791 14.9588L13.7541 14.7063C13.7674 14.5771 13.7674 14.4475 13.7541 14.3175C13.7666 14.1925 13.7666 14.0671 13.7541 13.9413C13.5666 12.685 13.4416 12.6225 13.1778 12.61C12.9141 12.5975 12.7378 12.685 12.4866 13.8663C12.4757 13.9954 12.4757 14.1246 12.4866 14.2538C12.4741 14.3888 12.4741 14.5229 12.4866 14.6563C12.5132 14.7838 12.5466 14.9096 12.5866 15.0338C12.2027 15.1059 11.8311 15.2321 11.4828 15.4088C11.2326 15.5188 11.0075 15.6788 10.8213 15.8789C10.6351 16.079 10.4917 16.315 10.4 16.5725C10.3082 16.83 10.27 17.1035 10.2877 17.3762C10.3054 17.649 10.3786 17.9153 10.5028 18.1588C10.6078 18.4386 10.7757 18.6905 10.9935 18.8951C11.2113 19.0997 11.4732 19.2515 11.7591 19.3388C12.6216 19.5138 13.5028 19.5763 14.3828 19.5263C14.9853 19.5263 15.5503 19.5263 15.7003 20.155C15.8503 20.7825 15.2991 21.2975 14.5953 21.6113C13.8104 21.9692 12.9383 22.0912 12.0853 21.9625C11.8418 21.9086 11.6114 21.8066 11.4078 21.6625C11.1874 21.4817 10.9775 21.2885 10.7791 21.0838C10.7041 21.009 10.6025 20.9669 10.4966 20.9669C10.3906 20.9669 10.289 21.009 10.2141 21.0838C10.1755 21.12 10.1447 21.1638 10.1237 21.2123C10.1026 21.2609 10.0918 21.3133 10.0918 21.3663C10.0918 21.4192 10.1026 21.4716 10.1237 21.5202C10.1447 21.5688 10.1755 21.6125 10.2141 21.6488C10.4741 21.9688 10.767 22.2533 11.0928 22.5025C11.3366 22.675 11.6091 22.8025 11.8966 22.8788C12.1924 22.9604 12.4936 23.0063 12.8003 23.0163V23.1925C12.7878 23.3225 12.7878 23.4525 12.8003 23.5825C12.7878 23.7075 12.7878 23.8329 12.8003 23.9588C12.9891 25.2138 13.1141 25.2775 13.3653 25.29C13.6166 25.3025 13.8178 25.2275 14.0691 24.0338V23.6325C14.0816 23.4983 14.0816 23.3646 14.0691 23.2313C14.0485 23.1463 14.0234 23.0624 13.9941 22.98C14.5791 22.895 15.1466 22.7175 15.6753 22.4525C16.1497 22.246 16.5412 21.8863 16.7871 21.4311C17.0329 20.9758 17.119 20.4512 17.0316 19.9413C16.9863 19.6181 16.8585 19.3121 16.6606 19.0526C16.4627 18.7932 16.2013 18.5891 15.9016 18.46Z" fill="#6165FF"/>
<path fill-rule="evenodd" clip-rule="evenodd" d="M24.9396 16.565C24.7509 15.6432 24.4473 14.7487 24.0359 13.9025C23.5323 12.8501 22.9269 11.8495 22.2284 10.915C21.5848 10.0573 20.8431 9.27785 20.0184 8.5925C20.2742 8.4975 20.5254 8.38917 20.7721 8.2675C20.821 8.24705 20.8654 8.21708 20.9026 8.17933C20.9399 8.14158 20.9692 8.0968 20.989 8.0476C21.0088 7.9984 21.0186 7.94575 21.0178 7.89273C21.0171 7.83971 21.0058 7.78737 20.9846 7.73875C20.9407 7.63966 20.8596 7.56182 20.7588 7.52206C20.658 7.48229 20.5456 7.4838 20.4459 7.52625C20.1309 7.65125 19.8084 7.75542 19.4784 7.83875C19.8867 7.23292 20.2425 6.59708 20.5459 5.93125C20.9071 5.1425 21.1084 4.28875 21.1359 3.42125C21.1311 2.87306 21.0339 2.32961 20.8484 1.81375C20.706 1.41288 20.4587 1.05759 20.1321 0.785C19.9216 0.6723 19.6865 0.613331 19.4477 0.613331C19.209 0.613331 18.9739 0.6723 18.7634 0.785C18.1484 1.01 17.3321 1.5 16.6671 1.78875C16.4409 1.87625 16.2771 1.98875 16.1521 1.96375C16.0271 1.93875 15.9271 1.70125 15.8134 1.52625C15.6142 1.18251 15.3827 0.858549 15.1221 0.55875C14.9345 0.359938 14.7082 0.201681 14.4571 0.09375C14.0784 -0.03125 13.6696 -0.03125 13.2896 0.09375C12.7434 0.2475 12.2271 0.48875 11.7584 0.81C10.5034 1.71375 10.6784 1.425 10.0009 1.0725C9.39817 0.674881 8.70972 0.425977 7.9921 0.34625C7.4146 0.34625 6.8496 0.74875 6.9371 2.00375L7.0496 2.9575L7.3271 4.28875C7.4046 4.59958 7.50044 4.905 7.6146 5.205C7.72627 5.5075 7.8521 5.80458 7.9921 6.09625C8.21127 6.58542 8.46252 7.05833 8.74585 7.515C8.84585 7.6775 8.97085 7.815 9.07086 7.96625H8.62085C8.13113 7.8434 7.6581 7.66166 7.2121 7.425C7.16904 7.40234 7.12159 7.38927 7.073 7.38666C7.02441 7.38406 6.97584 7.39199 6.9306 7.40992C6.88537 7.42785 6.84454 7.45535 6.81093 7.49053C6.77731 7.52571 6.7517 7.56775 6.73585 7.61375C6.71335 7.65409 6.69905 7.69848 6.69378 7.74438C6.68851 7.79027 6.69238 7.83675 6.70516 7.88114C6.71795 7.92553 6.73939 7.96694 6.76826 8.00301C6.79712 8.03907 6.83284 8.06906 6.87335 8.09125C7.04419 8.19292 7.22002 8.28458 7.40085 8.36625C6.45002 9.25459 5.55419 10.1963 4.71335 11.1913C3.84057 12.2144 3.05176 13.3062 2.3546 14.4563C2.00803 15.0137 1.71385 15.602 1.47585 16.2138C1.23947 16.8461 1.0547 17.4966 0.923354 18.1588C0.59926 19.4647 0.590755 20.829 0.898543 22.1388C1.20633 23.4486 1.82157 24.6664 2.69335 25.6913C4.52219 27.6202 6.90322 28.9358 9.5096 29.4575C13.1396 30.4075 16.9846 30.1025 20.4196 28.5913C21.5605 28.0099 22.5605 27.1862 23.3496 26.1778C24.1388 25.1695 24.6981 24.0009 24.9884 22.7538C25.1384 22.1846 25.2388 21.6071 25.2896 21.0213C25.3348 20.4405 25.3348 19.857 25.2896 19.2763C25.2454 18.3629 25.1288 17.46 24.9396 16.565ZM9.4246 7.11125C9.1734 6.6766 8.95528 6.22366 8.7721 5.75625C8.6721 5.4925 8.57085 5.20375 8.49585 4.9275C8.42085 4.65125 8.33335 4.35 8.2696 4.06125L8.0821 2.80625V1.94C8.0821 1.4 7.95585 1.35 8.69585 1.73875C9.14835 1.97625 9.60085 2.29125 9.9521 2.47875C10.2509 2.64375 10.5909 2.71625 10.9309 2.6925C11.3829 2.61103 11.8114 2.43092 12.1859 2.165C12.5836 1.86232 13.0036 1.58989 13.4421 1.35C13.5238 1.29955 13.6147 1.26584 13.7096 1.25082C13.8044 1.2358 13.9013 1.23977 13.9946 1.2625C14.1821 1.3375 14.2946 1.5375 14.4334 1.725C14.6284 2.05 14.8459 2.36 15.0859 2.655C15.2859 2.89625 15.5521 3.07125 15.8521 3.1575C16.2811 3.22373 16.72 3.15378 17.1071 2.9575C19.0034 2.1025 19.4421 1.14875 19.8446 2.40375C19.9529 2.74208 20.0196 3.08958 20.0446 3.44625C20.0569 4.18665 19.916 4.9216 19.6309 5.605C19.284 6.48998 18.8374 7.33251 18.2996 8.11625C17.7859 8.19125 17.2459 8.25375 16.7059 8.29125H13.8059C12.8396 8.29125 11.8096 8.29125 10.8934 8.14125H10.0396C9.81643 7.8091 9.61114 7.46528 9.4246 7.11125ZM24.1746 20.9213C24.1248 21.4525 24.0244 21.9778 23.8746 22.49C23.6077 23.573 23.106 24.5842 22.405 25.4518C21.7041 26.3195 20.821 27.0226 19.8184 27.5113C16.6475 28.8761 13.1083 29.1285 9.77585 28.2275C7.42656 27.7878 5.26991 26.6346 3.5996 24.925C2.81838 24.0502 2.25707 23.0016 1.96228 21.8663C1.6675 20.7311 1.64772 19.5419 1.9046 18.3975C2.1171 17.1663 2.5421 15.9813 3.1596 14.895C3.79717 13.7529 4.52799 12.6655 5.3446 11.6438C6.16171 10.6307 7.04666 9.67437 7.99335 8.78125C7.99335 8.78125 7.99335 8.68125 8.06835 8.68125C8.17585 8.72375 8.2846 8.76125 8.3946 8.79375C9.1696 9.02542 9.95669 9.20542 10.7559 9.33375C11.3959 9.43375 12.0109 9.54625 12.7509 9.59625C13.7725 9.68459 14.7934 9.68459 15.8134 9.59625C16.9699 9.50318 18.1117 9.27625 19.2159 8.92C19.2342 8.97 19.2592 9.01583 19.2909 9.0575C20.1339 9.76401 20.8848 10.5737 21.5259 11.4675C22.1696 12.3713 22.7246 13.3338 23.1834 14.3425C23.5404 15.1451 23.7978 15.9885 23.9496 16.8538C24.1154 17.7163 24.2113 18.5867 24.2371 19.465C24.2504 19.9642 24.2296 20.4621 24.1746 20.9588V20.9213Z" fill="#6165FF"/>
</svg>
