<svg width="15" height="16" viewBox="0 0 15 16" fill="none" xmlns="http://www.w3.org/2000/svg">
<path d="M13.8027 4.47962C13.8034 4.57513 13.7744 4.66849 13.7196 4.74673C13.6648 4.82497 13.587 4.8842 13.4971 4.9162L11.6506 5.58764L10.9795 7.43376C10.9464 7.52288 10.8868 7.59974 10.8088 7.65402C10.7308 7.70829 10.638 7.73738 10.5429 7.73738C10.4479 7.73738 10.3551 7.70829 10.277 7.65402C10.199 7.59974 10.1394 7.52288 10.1063 7.43376L9.43519 5.58735L7.58878 4.9162C7.49966 4.88312 7.4228 4.82355 7.36853 4.74551C7.31425 4.66747 7.28516 4.57468 7.28516 4.47962C7.28516 4.38456 7.31425 4.29178 7.36853 4.21374C7.4228 4.13569 7.49966 4.07613 7.58878 4.04305L9.43519 3.3719L10.1063 1.52549C10.1394 1.43637 10.199 1.35951 10.277 1.30523C10.3551 1.25096 10.4479 1.22186 10.5429 1.22186C10.638 1.22186 10.7308 1.25096 10.8088 1.30523C10.8868 1.35951 10.9464 1.43637 10.9795 1.52549L11.6509 3.3719L13.4971 4.04305C13.587 4.07505 13.6648 4.13428 13.7196 4.21252C13.7744 4.29076 13.8034 4.38412 13.8027 4.47962Z" fill="#6061F7"/>
<path d="M5.6258 7.79117C5.62638 7.86545 5.6038 7.93806 5.5612 7.99892C5.5186 8.05977 5.45811 8.10584 5.38812 8.13072L3.95202 8.65296L3.43001 10.0888C3.40428 10.1581 3.35796 10.2179 3.29726 10.2601C3.23656 10.3024 3.16439 10.325 3.09046 10.325C3.01652 10.325 2.94435 10.3024 2.88365 10.2601C2.82295 10.2179 2.77663 10.1581 2.7509 10.0888L2.22889 8.65273L0.792796 8.13072C0.72348 8.105 0.663699 8.05867 0.621484 7.99797C0.579268 7.93727 0.556641 7.86511 0.556641 7.79117C0.556641 7.71723 0.579268 7.64507 0.621484 7.58437C0.663699 7.52367 0.72348 7.47734 0.792796 7.45161L2.22889 6.9296L2.7509 5.49351C2.77663 5.42419 2.82295 5.36441 2.88365 5.3222C2.94435 5.27998 3.01652 5.25735 3.09046 5.25735C3.16439 5.25735 3.23656 5.27998 3.29726 5.3222C3.35796 5.36441 3.40428 5.42419 3.43001 5.49351L3.95225 6.9296L5.38812 7.45161C5.45811 7.4765 5.5186 7.52257 5.5612 7.58342C5.6038 7.64428 5.62638 7.71689 5.6258 7.79117Z" fill="url(#paint0_linear_87_57)"/>
<g clip-path="url(#clip0_87_57)">
<path d="M12.2489 12.7583C12.2494 12.8326 12.2268 12.9052 12.1842 12.966C12.1417 13.0269 12.0812 13.073 12.0112 13.0979L10.5751 13.6201L10.0531 15.056C10.0273 15.1253 9.981 15.1851 9.9203 15.2273C9.8596 15.2695 9.78744 15.2921 9.7135 15.2921C9.63957 15.2921 9.5674 15.2695 9.5067 15.2273C9.446 15.1851 9.39968 15.1253 9.37395 15.056L8.85194 13.6199L7.41584 13.0979C7.34653 13.0721 7.28675 13.0258 7.24453 12.9651C7.20232 12.9044 7.17969 12.8322 7.17969 12.7583C7.17969 12.6844 7.20232 12.6122 7.24453 12.5515C7.28675 12.4908 7.34653 12.4445 7.41584 12.4187L8.85194 11.8967L9.37395 10.4606C9.39968 10.3913 9.446 10.3315 9.5067 10.2893C9.5674 10.2471 9.63957 10.2245 9.7135 10.2245C9.78744 10.2245 9.8596 10.2471 9.9203 10.2893C9.981 10.3315 10.0273 10.3913 10.0531 10.4606L10.5753 11.8967L12.0112 12.4187C12.0812 12.4436 12.1417 12.4897 12.1842 12.5506C12.2268 12.6114 12.2494 12.684 12.2489 12.7583Z" fill="#6061F7"/>
</g>
<defs>
<linearGradient id="paint0_linear_87_57" x1="3.09123" y1="5.25735" x2="3.09123" y2="10.325" gradientUnits="userSpaceOnUse">
<stop stop-color="#6165FF"/>
<stop offset="1" stop-color="#0697E0"/>
</linearGradient>
<clipPath id="clip0_87_57">
<rect width="6.56776" height="11.4946" fill="white" transform="translate(7.69922 4.16107)"/>
</clipPath>
</defs>
</svg>
