<svg width="24" height="24" viewBox="0 0 24 24" fill="none" xmlns="http://www.w3.org/2000/svg">
<g clip-path="url(#clip0_86_343)">
<g clip-path="url(#clip1_86_343)">
<path d="M0.152344 5.80386C0.152344 2.7139 2.65726 0.208984 5.74721 0.208984H18.3357C21.4257 0.208984 23.9306 2.7139 23.9306 5.80386V18.3923C23.9306 21.4823 21.4257 23.9872 18.3357 23.9872H5.74721C2.65726 23.9872 0.152344 21.4823 0.152344 18.3923V5.80386Z" fill="#6061F7"/>
<path d="M12 5C11.0807 5 10.1705 5.18106 9.32122 5.53284C8.47194 5.88463 7.70026 6.40024 7.05025 7.05025C5.7375 8.36301 5 10.1435 5 12C5 13.8565 5.7375 15.637 7.05025 16.9497C7.70026 17.5998 8.47194 18.1154 9.32122 18.4672C10.1705 18.8189 11.0807 19 12 19C13.8565 19 15.637 18.2625 16.9497 16.9497C18.2625 15.637 19 13.8565 19 12C19 11.0807 18.8189 10.1705 18.4672 9.32122C18.1154 8.47194 17.5998 7.70026 16.9497 7.05025C16.2997 6.40024 15.5281 5.88463 14.6788 5.53284C13.8295 5.18106 12.9193 5 12 5ZM8.549 16.396C8.85 15.766 10.684 15.15 12 15.15C13.316 15.15 15.15 15.766 15.451 16.396C14.4704 17.1769 13.2535 17.6014 12 17.6C10.698 17.6 9.501 17.152 8.549 16.396ZM16.452 15.381C15.451 14.163 13.022 13.75 12 13.75C10.978 13.75 8.549 14.163 7.548 15.381C6.80342 14.4112 6.39987 13.2227 6.4 12C6.4 8.913 8.913 6.4 12 6.4C15.087 6.4 17.6 8.913 17.6 12C17.6 13.274 17.166 14.45 16.452 15.381ZM12 7.8C10.642 7.8 9.55 8.892 9.55 10.25C9.55 11.608 10.642 12.7 12 12.7C13.358 12.7 14.45 11.608 14.45 10.25C14.45 8.892 13.358 7.8 12 7.8ZM12 11.3C11.7215 11.3 11.4545 11.1894 11.2575 10.9925C11.0606 10.7955 10.95 10.5285 10.95 10.25C10.95 9.97152 11.0606 9.70445 11.2575 9.50754C11.4545 9.31062 11.7215 9.2 12 9.2C12.2785 9.2 12.5455 9.31062 12.7425 9.50754C12.9394 9.70445 13.05 9.97152 13.05 10.25C13.05 10.5285 12.9394 10.7955 12.7425 10.9925C12.5455 11.1894 12.2785 11.3 12 11.3Z" fill="white"/>
</g>
</g>
<defs>
<clipPath id="clip0_86_343">
<rect width="24" height="24" fill="white"/>
</clipPath>
<clipPath id="clip1_86_343">
<rect width="24" height="24" fill="white"/>
</clipPath>
</defs>
</svg>
