<svg width="19" height="19" viewBox="0 0 19 19" fill="none" xmlns="http://www.w3.org/2000/svg">
<path d="M17.7929 7.61912L15.2422 5.06837C14.8762 2.30612 12.4912 0.183624 9.6719 0.183624C7.2494 0.183624 5.16065 1.71287 4.37915 3.95462C4.22315 3.96962 4.06715 3.99362 3.91191 4.02662C2.30991 4.36187 1.03491 5.67588 0.740905 7.29513C0.468655 8.80113 1.01316 10.2696 2.17191 11.2199V11.4329C2.17191 11.6324 2.25066 11.8229 2.39166 11.9631L2.9864 12.5579L2.39166 13.1526C2.09841 13.4459 2.09841 13.9199 2.39166 14.2131L2.9864 14.8079L2.39166 15.4026C2.25066 15.5436 2.17191 15.7341 2.17191 15.9329C2.17191 16.1316 2.25066 16.3229 2.39166 16.4631L3.62766 17.6984C3.95015 18.0209 4.37315 18.1829 4.79765 18.1829C5.22065 18.1829 5.64515 18.0209 5.96765 17.6984L6.7634 16.9019C7.1879 16.4774 7.42265 15.9119 7.42265 15.3111V11.2379C8.36915 10.4571 8.92265 9.29613 8.92265 8.05713C8.92265 6.80912 8.3669 5.64138 7.39715 4.85387C6.9584 4.49762 6.4559 4.24562 5.9249 4.09562C6.58265 2.64512 8.0249 1.68287 9.6734 1.68287C11.7134 1.68287 13.4302 3.20162 13.7339 5.18687L11.3024 7.61837C10.7437 8.17637 10.4234 8.94963 10.4234 9.73938V15.1829C10.4234 16.8374 11.7689 18.1829 13.4234 18.1829H15.6734C17.3279 18.1829 18.6734 16.8374 18.6734 15.1829V9.73938C18.6734 8.94963 18.3532 8.17637 17.7944 7.61837L17.7929 7.61912ZM7.4219 8.05862C7.4219 8.93538 6.9854 9.75063 6.25415 10.2404C6.0464 10.3799 5.9219 10.6131 5.9219 10.8636V15.3126C5.9219 15.5099 5.8424 15.7034 5.70215 15.8429L4.9064 16.6394C4.8554 16.6904 4.73915 16.6904 4.68815 16.6394L3.9824 15.9344L4.57715 15.3396C4.8704 15.0464 4.8704 14.5724 4.57715 14.2791L3.9824 13.6844L4.57715 13.0896C4.8704 12.7964 4.8704 12.3224 4.57715 12.0291L3.6719 11.1239V10.8449C3.6719 10.5951 3.54741 10.3611 3.3404 10.2224C2.45766 9.62988 2.02791 8.61137 2.21766 7.56437C2.40366 6.53912 3.20841 5.70662 4.22015 5.49512C5.03615 5.32487 5.82515 5.51162 6.4514 6.02012C7.06865 6.52187 7.42265 7.26438 7.42265 8.05938L7.4219 8.05862ZM17.1719 15.1836C17.1719 16.0109 16.4992 16.6836 15.6719 16.6836H13.4219C12.5947 16.6836 11.9219 16.0109 11.9219 15.1836V9.74012C11.9219 9.34562 12.0824 8.95862 12.3614 8.67962L14.5469 6.49412L16.7324 8.67962C17.0114 8.95862 17.1719 9.34562 17.1719 9.74012V15.1836ZM4.7969 6.18362C5.4179 6.18362 5.9219 6.68762 5.9219 7.30862C5.9219 7.92963 5.4179 8.43363 4.7969 8.43363C4.1759 8.43363 3.6719 7.92963 3.6719 7.30862C3.6719 6.68762 4.1759 6.18362 4.7969 6.18362Z" fill="black"/>
</svg>
