<svg width="18" height="10" viewBox="0 0 18 10" fill="none" xmlns="http://www.w3.org/2000/svg">
<path fill-rule="evenodd" clip-rule="evenodd" d="M4.09351 6.6577C5.01787 6.6577 5.76723 7.40706 5.76723 8.33143C5.76723 9.25579 5.01787 10.0052 4.09351 10.0052C3.16915 10.0052 2.41982 9.25579 2.41982 8.33143C2.41982 7.40706 3.16915 6.6577 4.09351 6.6577ZM13.7174 6.6577C14.6417 6.6577 15.3911 7.40706 15.3911 8.33143C15.3911 9.25579 14.6417 10.0052 13.7174 10.0052C12.793 10.0052 12.0437 9.25579 12.0437 8.33143C12.0437 7.40706 12.793 6.6577 13.7174 6.6577ZM11.2068 8.33143C11.2068 8.62485 11.2571 8.90654 11.3497 9.16831H6.46121C6.55607 8.8995 6.60439 8.61648 6.60408 8.33143C6.60408 8.038 6.55375 7.75631 6.46121 7.49454H11.3497C11.2548 7.76335 11.2065 8.04637 11.2068 8.33143ZM10.2304 0.799713L10.4536 0.967098L13.6647 3.37556L16.2154 4.01364C16.9167 4.18898 17.4209 4.79231 17.4779 5.50295L17.4832 5.63739V8.5664L16.8493 8.72488L16.1642 8.89619C16.2067 8.71094 16.2281 8.52148 16.228 8.33143C16.228 7.81813 16.0739 7.34085 15.8096 6.94324L15.8095 5.63739L13.096 4.95902L12.932 4.91803L12.8993 4.89343L12.4621 5.33063C12.1482 5.6445 11.7225 5.82084 11.2786 5.82085L2.41978 5.82082V6.46019C1.90617 6.91986 1.58294 7.5879 1.58294 8.33143C1.58294 8.45868 1.59243 8.5837 1.61067 8.70585L0.746094 7.8412V3.84417L0.940075 3.6114L3.0322 1.10083L3.28314 0.799713H10.2304ZM9.67286 2.47344H4.06675L2.67221 4.14713H11.2786L11.5467 3.87897L9.67286 2.47344Z" fill="black"/>
</svg>
