<svg width="15" height="14" viewBox="0 0 15 14" fill="none" xmlns="http://www.w3.org/2000/svg">
<path d="M9.78889 5.85761L2.66211 12.985M11.7326 1.32303L9.78889 3.2667C9.43579 3.6198 9.25892 3.79667 9.16433 3.98715C9.07571 4.16599 9.0296 4.36288 9.0296 4.56247C9.0296 4.76207 9.07571 4.95896 9.16433 5.1378C9.25892 5.32828 9.43579 5.50515 9.78889 5.85825C10.142 6.21135 10.3189 6.38823 10.5093 6.48282C10.6882 6.57144 10.8851 6.61754 11.0847 6.61754C11.2843 6.61754 11.4812 6.57144 11.66 6.48282C11.8505 6.38823 12.0273 6.21135 12.3804 5.85825L14.3241 3.91459M13.0283 2.61751L11.0847 4.56118" stroke="black" stroke-width="0.971834" stroke-linecap="round" stroke-linejoin="round"/>
<path d="M5.80183 5.75789C4.91746 6.64226 3.70461 6.86319 2.59867 5.75789C1.49337 4.65194 0.914156 2.63895 1.79852 1.75394C2.68289 0.870215 4.69589 1.44943 5.80183 2.55473C6.90713 3.66067 6.6862 4.87352 5.80183 5.75789ZM5.80183 5.75789L13.029 12.9844" stroke="black" stroke-width="0.971834" stroke-linecap="round"/>
</svg>
